# xmcd CD database file
#
# Track frame offsets:
#	150
#	23008
#	40333
#	58931
#	77644
#	96862
#	115285
#	133276
#	153226
#	173979
#	193815
#	215345
#
# Disc length: 3086 seconds
#
# Revision: 3
# Processed by: cddbd v1.5.2PL0 Copyright (c) Steve Scherf et al.
# Submitted via: CDex 1.70beta2
#
DISCID=a70c0c0c
DTITLE=Céline Dion - S'il suffisait d'aimer
DYEAR=2001
DGENRE=Chanson
TTITLE0=Je crois toi
TTITLE1=Zora sourit
TTITLE2=On ne change pas
TTITLE3=Je chanterai
TTITLE4=Terre
TTITLE5=En attendant ses pas
TTITLE6=Papillon
TTITLE7=L'abandon
TTITLE8=Dans un autre monde
TTITLE9=Sur le même bateau
TTITLE10=Tous les blues sont écrits pour toi
TTITLE11=S'il suffisait d'aimer
EXTD=YEAR: 2001
EXTT0=
EXTT1=
EXTT2=
EXTT3=
EXTT4=
EXTT5=
EXTT6=
EXTT7=
EXTT8=
EXTT9=
EXTT10=
EXTT11=
PLAYORDER=
